<svg width="496" height="485" viewBox="0 0 496 485" fill="none" xmlns="http://www.w3.org/2000/svg">
<path d="M253.5 475H242.5C114.094 475 10 370.906 10 242.5C10 114.094 114.094 10 242.5 10H253.5C381.906 10 486 114.094 486 242.5C486 370.906 381.906 475 253.5 475Z" stroke="white" stroke-width="20"/>
<path d="M87 278.5V208.5C87 203.253 91.2533 199 96.5 199C101.747 199 106 203.253 106 208.5V278.5C106 283.747 101.747 288 96.5 288C91.2533 288 87 283.747 87 278.5Z" fill="white" stroke="white" stroke-width="2"/>
<path d="M45 244.5V243.5C45 237.149 50.1487 232 56.5 232C62.8513 232 68 237.149 68 243.5V244.5C68 250.851 62.8513 256 56.5 256C50.1487 256 45 250.851 45 244.5Z" fill="white" stroke="white" stroke-width="2"/>
<path d="M426 242.5V241.5C426 235.149 431.149 230 437.5 230C443.851 230 449 235.149 449 241.5V242.5C449 248.851 443.851 254 437.5 254C431.149 254 426 248.851 426 242.5Z" fill="white" stroke="white" stroke-width="2"/>
<path d="M391 278.5V208.5C391 203.253 395.253 199 400.5 199C405.747 199 410 203.253 410 208.5V278.5C410 283.747 405.747 288 400.5 288C395.253 288 391 283.747 391 278.5Z" fill="white" stroke="white" stroke-width="2"/>
<path d="M125 321V165C125 159.477 129.477 155 135 155C140.523 155 145 159.477 145 165V321C145 326.523 140.523 331 135 331C129.477 331 125 326.523 125 321Z" fill="white" stroke="white" stroke-width="2"/>
<path d="M353 321V165C353 159.477 357.477 155 363 155C368.523 155 373 159.477 373 165V321C373 326.523 368.523 331 363 331C357.477 331 353 326.523 353 321Z" fill="white" stroke="white" stroke-width="2"/>
<path d="M200 353V135C200 129.477 204.477 125 210 125C215.523 125 220 129.477 220 135V353C220 358.523 215.523 363 210 363C204.477 363 200 358.523 200 353Z" fill="white" stroke="white" stroke-width="2"/>
<path d="M277 352V134C277 128.477 281.477 124 287 124C292.523 124 297 128.477 297 134V352C297 357.523 292.523 362 287 362C281.477 362 277 357.523 277 352Z" fill="white" stroke="white" stroke-width="2"/>
<path d="M238 411V75C238 69.4772 242.477 65 248 65C253.523 65 258 69.4771 258 75V411C258 416.523 253.523 421 248 421C242.477 421 238 416.523 238 411Z" fill="white" stroke="white" stroke-width="2"/>
<path d="M315 306V183C315 177.477 319.477 173 325 173C330.523 173 335 177.477 335 183V306C335 311.523 330.523 316 325 316C319.477 316 315 311.523 315 306Z" fill="white" stroke="white" stroke-width="2"/>
<path d="M164 306V183C164 177.477 168.477 173 174 173C179.523 173 184 177.477 184 183V306C184 311.523 179.523 316 174 316C168.477 316 164 311.523 164 306Z" fill="white" stroke="white" stroke-width="2"/>
<path d="M253.5 475H242.5C114.094 475 10 370.906 10 242.5C10 114.094 114.094 10 242.5 10H253.5C381.906 10 486 114.094 486 242.5C486 370.906 381.906 475 253.5 475Z" stroke="white" stroke-width="20"/>
<path d="M87 278.5V208.5C87 203.253 91.2533 199 96.5 199C101.747 199 106 203.253 106 208.5V278.5C106 283.747 101.747 288 96.5 288C91.2533 288 87 283.747 87 278.5Z" fill="white" stroke="white" stroke-width="2"/>
<path d="M45 244.5V243.5C45 237.149 50.1487 232 56.5 232C62.8513 232 68 237.149 68 243.5V244.5C68 250.851 62.8513 256 56.5 256C50.1487 256 45 250.851 45 244.5Z" fill="white" stroke="white" stroke-width="2"/>
<path d="M426 242.5V241.5C426 235.149 431.149 230 437.5 230C443.851 230 449 235.149 449 241.5V242.5C449 248.851 443.851 254 437.5 254C431.149 254 426 248.851 426 242.5Z" fill="white" stroke="white" stroke-width="2"/>
<path d="M391 278.5V208.5C391 203.253 395.253 199 400.5 199C405.747 199 410 203.253 410 208.5V278.5C410 283.747 405.747 288 400.5 288C395.253 288 391 283.747 391 278.5Z" fill="white" stroke="white" stroke-width="2"/>
<path d="M125 321V165C125 159.477 129.477 155 135 155C140.523 155 145 159.477 145 165V321C145 326.523 140.523 331 135 331C129.477 331 125 326.523 125 321Z" fill="white" stroke="white" stroke-width="2"/>
<path d="M353 321V165C353 159.477 357.477 155 363 155C368.523 155 373 159.477 373 165V321C373 326.523 368.523 331 363 331C357.477 331 353 326.523 353 321Z" fill="white" stroke="white" stroke-width="2"/>
<path d="M200 353V135C200 129.477 204.477 125 210 125C215.523 125 220 129.477 220 135V353C220 358.523 215.523 363 210 363C204.477 363 200 358.523 200 353Z" fill="white" stroke="white" stroke-width="2"/>
<path d="M277 352V134C277 128.477 281.477 124 287 124C292.523 124 297 128.477 297 134V352C297 357.523 292.523 362 287 362C281.477 362 277 357.523 277 352Z" fill="white" stroke="white" stroke-width="2"/>
<path d="M238 411V75C238 69.4772 242.477 65 248 65C253.523 65 258 69.4771 258 75V411C258 416.523 253.523 421 248 421C242.477 421 238 416.523 238 411Z" fill="white" stroke="white" stroke-width="2"/>
<path d="M315 306V183C315 177.477 319.477 173 325 173C330.523 173 335 177.477 335 183V306C335 311.523 330.523 316 325 316C319.477 316 315 311.523 315 306Z" fill="white" stroke="white" stroke-width="2"/>
<path d="M164 306V183C164 177.477 168.477 173 174 173C179.523 173 184 177.477 184 183V306C184 311.523 179.523 316 174 316C168.477 316 164 311.523 164 306Z" fill="white" stroke="white" stroke-width="2"/>
</svg>
