<svg width="436" height="395" viewBox="0 0 436 395" fill="none" xmlns="http://www.w3.org/2000/svg">
<g opacity="0.1">
<path d="M350.31 283.945L348.461 283.683C348.263 283.528 348.049 283.378 347.819 283.235L204.996 194.413C201.305 192.118 194.86 192.406 190.6 195.057L107.279 246.873C106.169 247.565 105.322 248.348 104.733 249.169L103.755 248.859V251.962L103.762 251.964C103.772 253.412 104.584 254.794 106.246 255.826L249.069 344.648C252.758 346.943 259.205 346.655 263.466 344.004L346.786 292.188C349.167 290.707 350.36 288.802 350.306 287.01H350.31V283.945Z" fill="#9FFFF8"/>
<path d="M249.067 341.533L106.244 252.712C102.553 250.416 103.017 246.408 107.278 243.759L190.598 191.942C194.859 189.292 201.305 189.005 204.995 191.299L347.818 280.12C351.507 282.416 351.045 286.424 346.784 289.073L263.464 340.89C259.203 343.54 252.758 343.829 249.067 341.533Z" fill="#42E8E0"/>
<path d="M154.889 260.621L137.255 249.654C135.614 248.634 135.821 246.851 137.715 245.674C139.609 244.495 142.476 244.367 144.116 245.387L161.749 256.354C163.39 257.374 163.184 259.157 161.29 260.334C159.396 261.513 156.53 261.641 154.889 260.621Z" fill="white"/>
<path d="M187.429 280.857L169.795 269.89C168.154 268.87 168.359 267.087 170.255 265.91C172.149 264.731 175.016 264.603 176.657 265.623L194.29 276.59C195.931 277.61 195.725 279.393 193.831 280.57C191.937 281.749 189.07 281.878 187.429 280.857Z" fill="white"/>
<path d="M219.968 301.094L202.335 290.128C200.694 289.107 200.9 287.324 202.794 286.147C204.688 284.968 207.555 284.84 209.195 285.861L226.829 296.827C228.469 297.847 228.263 299.63 226.369 300.808C224.476 301.986 221.609 302.114 219.968 301.094Z" fill="white"/>
<path d="M252.509 321.33L234.876 310.363C233.235 309.343 233.44 307.56 235.335 306.383C237.229 305.204 240.096 305.076 241.736 306.096L259.37 317.063C261.01 318.083 260.805 319.866 258.91 321.043C257.016 322.222 254.149 322.352 252.509 321.33Z" fill="white"/>
</g>
<path opacity="0.4" d="M244.149 299.529L133.204 230.533C130.337 228.75 130.697 225.636 134.007 223.578L198.73 183.327C202.041 181.269 207.048 181.046 209.915 182.827L320.859 251.824C323.726 253.607 323.366 256.72 320.057 258.779L255.333 299.031C252.022 301.09 247.016 301.313 244.149 299.529Z" fill="#0F054C"/>
<path d="M350.31 198.164L348.461 197.902C348.263 197.746 348.049 197.597 347.819 197.454L204.996 108.632C201.305 106.337 194.86 106.625 190.599 109.275L107.279 161.092C106.169 161.783 105.322 162.567 104.733 163.387L103.754 163.077V166.181L103.762 166.183C103.772 167.631 104.584 169.012 106.245 170.045L249.069 258.866C252.758 261.162 259.205 260.874 263.465 258.223L346.786 206.407C349.167 204.926 350.36 203.021 350.306 201.228H350.31V198.164Z" fill="#9FFFF8"/>
<path d="M249.067 255.753L106.244 166.932C102.553 164.636 103.017 160.628 107.278 157.979L190.598 106.162C194.859 103.512 201.305 103.225 204.995 105.519L347.818 194.341C351.507 196.636 351.045 200.645 346.784 203.294L263.464 255.11C259.203 257.761 252.758 258.049 249.067 255.753Z" fill="#42E8E0"/>
<path d="M272.112 249.733L115.926 152.6L132.505 142.289L288.692 239.422L272.112 249.733Z" fill="#24126A"/>
<path d="M430.378 212.207C430.378 194.841 419.059 173.724 405.097 165.042C398.103 160.693 391.773 160.289 387.196 163.152L382.416 166.162L383.804 166.302C381.284 169.625 379.817 174.523 379.817 180.763C379.817 198.129 391.136 219.246 405.097 227.928C409.894 230.912 414.38 232.039 418.202 231.529L418.095 232.908L422.947 229.85C422.967 229.837 422.986 229.825 423.006 229.813L423.202 229.69L423.191 229.686C427.635 226.784 430.378 220.747 430.378 212.207Z" fill="#9FFFF8"/>
<path d="M418.125 232.892C427.997 226.752 427.997 206.844 418.124 188.425C408.251 170.006 392.245 160.052 382.373 166.191C372.501 172.331 372.501 192.24 382.374 210.658C392.246 229.077 408.253 239.032 418.125 232.892Z" fill="#42E8E0"/>
<g opacity="0.1">
<path d="M430.378 352.667C430.378 335.301 419.059 314.184 405.097 305.502C398.103 301.153 391.773 300.749 387.196 303.612V303.61L382.416 306.622L383.804 306.762C381.284 310.085 379.817 314.983 379.817 321.223C379.817 338.589 391.136 359.706 405.097 368.388C409.894 371.372 414.38 372.499 418.202 371.989L418.095 373.368L422.947 370.31C422.967 370.297 422.986 370.285 423.006 370.272L423.202 370.149L423.191 370.146C427.635 367.243 430.378 361.209 430.378 352.667Z" fill="#9FFFF8"/>
<path d="M418.122 373.351C427.994 367.211 427.994 347.303 418.121 328.884C408.248 310.465 392.242 300.511 382.37 306.65C372.498 312.79 372.498 332.699 382.371 351.117C392.243 369.536 408.25 379.491 418.122 373.351Z" fill="#42E8E0"/>
</g>
<path d="M82.5164 70.1093C91.8763 55.9704 94.0406 31.6981 87.3525 15.896C84.0012 7.98021 79.0654 3.69292 73.7956 3.16188L73.7971 3.16032L68.2815 2.62305L69.337 3.60571C65.4942 4.73477 61.66 7.8058 58.2972 12.8858C48.9374 27.0246 46.7731 51.2969 53.4611 67.099C55.7599 72.5278 58.8047 76.2513 62.1906 78.226L61.3593 79.2834L66.9587 79.8269C66.9818 79.8285 67.0049 79.8316 67.0281 79.8332L67.2551 79.855L67.2478 79.8456C72.428 80.263 77.9132 77.0642 82.5164 70.1093Z" fill="#9FFFF8"/>
<path d="M85.3619 43.0849C87.2496 21.9138 79.581 3.79958 68.2337 2.62567C56.8864 1.45176 46.1574 17.6627 44.2698 38.8338C42.3821 60.0049 50.0507 78.1191 61.3979 79.293C72.7452 80.4669 83.4743 64.256 85.3619 43.0849Z" fill="#42E8E0"/>
<g opacity="0.1">
<path d="M93.9046 145.522C97.8775 128.692 91.7389 105.221 80.1931 93.1008C74.4101 87.0289 68.3668 84.9577 63.2763 86.5165L57.9545 88.1657L59.2673 88.6703C56.0649 91.2212 53.5218 95.5785 52.0949 101.627C48.1219 118.457 54.2606 141.927 65.8064 154.048C69.7735 158.214 73.8621 160.497 77.6832 161.017L77.264 162.327L82.6668 160.651C82.6885 160.645 82.7116 160.637 82.7333 160.631L82.9516 160.564L82.9415 160.557C87.912 158.921 91.9499 153.799 93.9046 145.522Z" fill="#9FFFF8"/>
<path d="M77.3064 162.304C88.2787 158.974 92.8324 139.679 87.4775 119.207C82.1225 98.7359 68.8868 84.8402 57.9145 88.1704C46.9423 91.5006 42.3886 110.796 47.7435 131.267C53.0984 151.738 66.3342 165.634 77.3064 162.304Z" fill="#42E8E0"/>
</g>
<g opacity="0.1">
<path d="M146.874 341.692C146.874 324.326 135.555 303.209 121.594 294.527C114.599 290.178 108.268 289.774 103.692 292.637V292.635L98.9127 295.647L100.301 295.787C97.7807 299.11 96.3132 304.008 96.3132 310.248C96.3132 327.614 107.632 348.731 121.594 357.413C126.391 360.397 130.877 361.524 134.698 361.014L134.591 362.393L139.443 359.335C139.463 359.322 139.482 359.31 139.502 359.297L139.699 359.174L139.689 359.171C144.132 356.268 146.874 350.232 146.874 341.692Z" fill="#9FFFF8"/>
<path d="M134.621 362.371C144.493 356.232 144.493 336.323 134.62 317.904C124.748 299.485 108.741 289.531 98.869 295.671C88.9969 301.81 88.9973 321.719 98.8699 340.138C108.743 358.557 124.749 368.511 134.621 362.371Z" fill="#42E8E0"/>
</g>
<path opacity="0.2" d="M118.394 381.418C96.2626 381.418 74.131 376.181 57.2822 365.702C40.9105 355.52 31.8948 341.967 31.8948 327.538C31.8948 313.11 40.9105 299.558 57.2807 289.376C90.9784 268.421 145.809 268.421 179.505 289.378C195.875 299.56 204.892 313.113 204.892 327.541C204.892 341.968 195.878 355.52 179.506 365.702C162.659 376.181 140.527 381.418 118.394 381.418ZM118.39 274.193C96.3479 274.193 74.3103 279.41 57.5295 289.845C41.3211 299.926 32.395 313.312 32.395 327.538C32.395 341.766 41.3211 355.153 57.5309 365.233C91.0926 386.104 145.696 386.104 179.253 365.233C195.463 355.153 204.389 341.768 204.389 327.541C204.389 313.314 195.462 299.927 179.252 289.847C162.475 279.411 140.432 274.193 118.39 274.193Z" fill="#42E8E0"/>
<path d="M118.393 361.059C104.649 361.059 90.9047 357.806 80.4417 351.298C70.2564 344.964 64.6469 336.527 64.6469 327.538C64.6469 318.551 70.2549 310.113 80.4403 303.779C101.366 290.768 135.418 290.766 156.345 303.781C166.531 310.115 172.139 318.552 172.139 327.541C172.139 336.528 166.529 344.964 156.345 351.298C145.882 357.806 132.138 361.059 118.393 361.059ZM118.39 294.552C104.738 294.552 91.0839 297.784 80.6904 304.25C70.667 310.482 65.1485 318.755 65.1485 327.539C65.1485 336.324 70.6684 344.597 80.6919 350.831C101.483 363.762 135.308 363.759 156.095 350.831C166.119 344.598 171.638 336.327 171.638 327.542C171.638 318.755 166.12 310.485 156.095 304.251C145.7 297.785 132.045 294.552 118.39 294.552Z" fill="#42E8E0"/>
<mask id="mask0_63_3" style="mask-type:luminance" maskUnits="userSpaceOnUse" x="78" y="229" width="80" height="116">
<path d="M157.978 334.809L142.087 344.673L78.808 305.321V229.64L157.978 278.876V334.809Z" fill="white"/>
</mask>
<g mask="url(#mask0_63_3)">
<path d="M146.874 341.692C146.874 324.326 135.555 303.209 121.594 294.527C114.599 290.178 108.268 289.774 103.692 292.637V292.635L98.9127 295.647L100.301 295.787C97.7807 299.11 96.3132 304.008 96.3132 310.248C96.3132 327.614 107.632 348.731 121.594 357.413C126.391 360.397 130.877 361.524 134.698 361.014L134.591 362.393L139.443 359.335C139.463 359.322 139.482 359.31 139.502 359.297L139.699 359.174L139.689 359.171C144.132 356.268 146.874 350.232 146.874 341.692Z" fill="#9FFFF8"/>
<path d="M134.621 362.371C144.493 356.232 144.493 336.323 134.62 317.904C124.748 299.485 108.741 289.531 98.869 295.671C88.9969 301.81 88.9973 321.719 98.8699 340.138C108.743 358.557 124.749 368.511 134.621 362.371Z" fill="#42E8E0"/>
</g>
<path d="M222.038 394.5L221.91 394.41L158 350.22L158.27 349.768L222.052 393.867L328.986 327.655L306.249 314.008V228.5H306.748V313.692L330 327.649L329.618 327.887L222.038 394.5Z" fill="#42E8E0"/>
<path d="M179.842 134.542C174.676 140.225 161.073 147.82 156.857 143.372C152.641 138.925 159.407 124.118 164.573 118.435C169.739 112.752 177.345 111.753 181.562 116.2C185.778 120.65 185.007 128.861 179.842 134.542Z" fill="url(#paint0_radial_63_3)"/>
<path d="M179.842 134.542C174.676 140.225 161.073 147.82 156.857 143.372C152.641 138.925 159.407 124.118 164.573 118.435C169.739 112.752 177.345 111.753 181.562 116.2C185.778 120.65 185.007 128.861 179.842 134.542Z" fill="url(#paint1_linear_63_3)"/>
<path d="M180.445 119.12C180.125 119.12 179.801 119.054 179.487 118.912C178.222 118.342 177.627 116.775 178.156 115.412L185.829 95.6626C186.358 94.3 187.809 93.6553 189.077 94.2283C190.342 94.7983 190.938 96.365 190.409 97.7276L182.736 117.477C182.338 118.504 181.416 119.12 180.445 119.12Z" fill="#42E8E0"/>
<path d="M277.888 111.877L273.285 113.884L289.189 156.206L293.792 154.198L277.888 111.877Z" fill="#42E8E0"/>
<path d="M193.183 103.203C201.704 103.203 208.612 95.7623 208.612 86.5835C208.612 77.4048 201.704 69.9639 193.183 69.9639C184.662 69.9639 177.754 77.4048 177.754 86.5835C177.754 95.7623 184.662 103.203 193.183 103.203Z" fill="url(#paint2_radial_63_3)"/>
<path d="M201.472 72.5662C208.658 77.4966 210.774 87.7702 206.195 95.5116C201.618 103.253 192.08 105.531 184.893 100.599C177.706 95.6689 175.591 85.3953 180.17 77.6539C184.749 69.9141 194.285 67.6357 201.472 72.5662Z" fill="url(#paint3_linear_63_3)"/>
<path d="M270.125 116.761C270.125 149.021 252.29 175.173 230.29 175.173C208.29 175.173 190.455 149.021 190.455 116.761C190.455 84.5013 208.29 74.8335 230.29 74.8335C252.29 74.8351 270.125 84.5013 270.125 116.761Z" fill="url(#paint4_radial_63_3)"/>
<path d="M270.125 116.761C270.125 149.021 252.29 175.173 230.29 175.173C208.29 175.173 190.455 149.021 190.455 116.761C190.455 84.5013 208.29 74.8335 230.29 74.8335C252.29 74.8351 270.125 84.5013 270.125 116.761Z" fill="url(#paint5_linear_63_3)"/>
<path d="M249.513 104.134C238.895 110.737 221.682 110.737 211.064 104.134C200.447 97.5312 200.447 86.8263 211.064 80.2233C221.682 73.6202 238.895 73.6202 249.513 80.2233C260.13 86.8263 260.13 97.5312 249.513 104.134Z" fill="#393091"/>
<path d="M211.064 84.727C221.682 78.124 238.895 78.124 249.513 84.727C253.897 87.4539 256.467 90.8815 257.23 94.4306C258.314 89.3881 255.745 84.0994 249.513 80.2233C238.895 73.6202 221.682 73.6202 211.064 80.2233C204.833 84.0979 202.264 89.3865 203.348 94.4306C204.112 90.8815 206.679 87.4539 211.064 84.727Z" fill="#42E8E0"/>
<path d="M215.059 41.8891C219.537 33.535 219.537 24.5051 215.059 21.7202C210.581 18.9352 203.32 23.4499 198.843 31.8039C194.365 40.1579 194.365 49.1878 198.843 51.9728C203.321 54.7577 210.581 50.2431 215.059 41.8891Z" fill="#BCBEFF"/>
<path d="M231.868 95.5848C254.306 95.5848 272.496 75.9918 272.496 51.8227C272.496 27.6535 254.306 8.06055 231.868 8.06055C209.431 8.06055 191.241 27.6535 191.241 51.8227C191.241 75.9918 209.431 95.5848 231.868 95.5848Z" fill="url(#paint6_radial_63_3)"/>
<path d="M231.868 95.5848C254.306 95.5848 272.496 75.9918 272.496 51.8227C272.496 27.6535 254.306 8.06055 231.868 8.06055C209.431 8.06055 191.241 27.6535 191.241 51.8227C191.241 75.9918 209.431 95.5848 231.868 95.5848Z" fill="url(#paint7_linear_63_3)"/>
<path d="M219.194 72.5517C218.156 81.1574 212.125 83.8609 205.725 78.5894C199.325 73.3179 194.977 62.0679 196.015 53.4622C197.053 44.8564 203.084 42.1529 209.484 47.4244C215.884 52.6944 220.232 63.9444 219.194 72.5517Z" fill="#393091"/>
<path d="M213.908 65.1C213.531 68.2271 211.339 69.2097 209.013 67.2942C206.686 65.3788 205.106 61.2892 205.484 58.1622C205.861 55.0351 208.053 54.0524 210.379 55.9679C212.705 57.8834 214.285 61.9729 213.908 65.1Z" fill="#42E8E0"/>
<path d="M208.799 77.3342C202.398 72.0627 198.051 60.8127 199.089 52.207C199.513 48.6983 200.766 46.1724 202.534 44.7661C199.189 45.1056 196.654 48.1626 196.015 53.4622C194.977 62.0679 199.325 73.3179 205.725 78.5894C209.516 81.7118 213.176 82.0358 215.747 79.9926C213.661 80.2028 211.258 79.3603 208.799 77.3342Z" fill="#453C9E"/>
<path d="M206.277 78.3091C199.877 73.0376 195.529 61.7876 196.567 53.1818C197.047 49.1982 198.599 46.4823 200.762 45.2349C198.314 46.3203 196.537 49.1468 196.017 53.4622C194.979 62.0679 199.326 73.3179 205.726 78.5894C209.163 81.4191 212.488 81.9439 214.996 80.4971C212.562 81.5748 209.466 80.9363 206.277 78.3091Z" fill="#42E8E0"/>
<path d="M275.614 129.517C284.135 129.517 291.043 122.076 291.043 112.897C291.043 103.718 284.135 96.2773 275.614 96.2773C267.093 96.2773 260.185 103.718 260.185 112.897C260.185 122.076 267.093 129.517 275.614 129.517Z" fill="url(#paint8_radial_63_3)"/>
<path d="M275.614 129.517C284.135 129.517 291.043 122.076 291.043 112.897C291.043 103.718 284.135 96.2773 275.614 96.2773C267.093 96.2773 260.185 103.718 260.185 112.897C260.185 122.076 267.093 129.517 275.614 129.517Z" fill="url(#paint9_linear_63_3)"/>
<path d="M300.221 167.961C299.346 175.858 292.871 190.814 287.011 190.062C281.151 189.308 278.125 173.131 279 165.234C279.875 157.337 285.334 151.545 291.195 152.299C297.055 153.051 301.096 160.064 300.221 167.961Z" fill="url(#paint10_radial_63_3)"/>
<path d="M300.221 167.961C299.346 175.858 292.871 190.814 287.011 190.062C281.151 189.308 278.125 173.131 279 165.234C279.875 157.337 285.334 151.545 291.195 152.299C297.055 153.051 301.096 160.064 300.221 167.961Z" fill="url(#paint11_linear_63_3)"/>
<g opacity="0.3">
<path d="M387.492 125.219V118.239L385.699 117.166C385.193 120.46 381.594 122.631 378.585 123.081L358.093 135.988L349.149 139.467L320.604 123.599L321.264 123.188C318.823 121.961 317.51 119.153 316.19 116.591L314.269 117.826L313.127 118.172V125.329C313.127 126.697 313.964 128.064 315.638 129.106L344.237 146.89C347.585 148.973 353.034 148.973 356.382 146.89L384.979 129.106C386.626 128.081 387.463 126.742 387.491 125.396C387.492 125.336 387.489 125.276 387.488 125.216L387.492 125.219Z" fill="url(#paint12_linear_63_3)"/>
<path opacity="0.3" d="M378.585 123.081L358.093 135.988L350.309 139.015V148.452C352.508 148.452 354.708 147.932 356.382 146.891L384.979 129.106C386.626 128.081 387.463 126.742 387.491 125.396C387.492 125.336 387.489 125.277 387.488 125.216L387.492 125.217V118.237L385.854 117.256H385.684C385.124 120.499 381.566 122.634 378.585 123.081Z" fill="#0F054C"/>
<path d="M344.238 139.8L315.64 122.016C312.291 119.934 312.291 116.545 315.64 114.463L344.237 96.6783C347.585 94.5962 353.034 94.5962 356.382 96.6783L384.981 114.463C388.329 116.545 388.329 119.934 384.981 122.016L356.384 139.8C353.034 141.882 347.586 141.882 344.238 139.8Z" fill="url(#paint13_linear_63_3)"/>
<g opacity="0.3">
<path d="M344.238 139.8L315.64 122.016C312.291 119.934 312.291 116.545 315.64 114.463L344.237 96.6783C347.585 94.5962 353.034 94.5962 356.382 96.6783L384.981 114.463C388.329 116.545 388.329 119.934 384.981 122.016L356.384 139.8C353.034 141.882 347.586 141.882 344.238 139.8Z" fill="#0F054C"/>
</g>
</g>
<path d="M350.31 113.926C348.357 113.926 346.407 113.463 344.919 112.54L316.321 94.7534C314.837 93.8299 314.019 92.5841 314.019 91.2448C314.019 89.9071 314.836 88.6597 316.321 87.7362L344.918 69.9516C347.892 68.1047 352.725 68.1047 355.699 69.9516L384.297 87.7377C385.78 88.6612 386.599 89.9086 386.599 91.2464C386.599 92.5841 385.782 93.8315 384.297 94.755L355.7 112.54C354.215 113.463 352.262 113.926 350.31 113.926ZM345.172 112.072C348.003 113.835 352.613 113.838 355.45 112.072L384.047 94.2878C385.37 93.4655 386.1 92.3847 386.1 91.2479C386.1 90.1111 385.37 89.0303 384.047 88.208L355.448 70.4219C352.616 68.6575 348.003 68.6575 345.171 70.4219L316.574 88.2065C315.251 89.0287 314.521 90.1095 314.521 91.2464C314.521 92.3832 315.251 93.464 316.574 94.2862L345.172 112.072Z" fill="#42E8E0"/>
<path opacity="0.4" d="M387.492 84.4208V73.8731L385.699 72.8001C385.193 76.0939 381.594 78.2648 378.585 78.7164L358.093 91.6234L349.149 95.1025L320.604 79.235L321.264 78.8238C318.823 77.5967 317.51 74.7888 316.19 72.2271L314.269 73.462L313.127 73.8077V84.5345C313.127 85.9018 313.964 87.2692 315.638 88.311L344.237 106.097C347.585 108.179 353.034 108.179 356.382 106.097L384.979 88.3126C386.626 87.2878 387.463 85.9485 387.491 84.603C387.492 84.5423 387.489 84.4831 387.488 84.4224L387.492 84.4208Z" fill="#42E8E0"/>
<path d="M387.492 75.0444V68.0645L385.699 66.9915C385.193 70.2853 381.594 72.4562 378.585 72.9062L358.093 85.8132L349.149 89.2923L320.604 73.4248L321.264 73.0152C318.823 71.7881 317.51 68.9802 316.19 66.4185L314.269 67.6534L313.127 67.9991V75.1565C313.127 76.5239 313.964 77.8912 315.638 78.933L344.237 96.7191C347.585 98.8012 353.034 98.8012 356.382 96.7191L384.979 78.9346C386.626 77.9099 387.463 76.5706 387.491 75.2251C387.492 75.1643 387.489 75.1051 387.488 75.0444H387.492Z" fill="url(#paint14_linear_63_3)"/>
<path opacity="0.3" d="M378.585 72.9074L358.093 85.8144L350.309 88.8418V98.2791C352.508 98.2791 354.708 97.759 356.382 96.7171L384.979 78.9326C386.626 77.9079 387.463 76.5686 387.491 75.2231C387.492 75.1624 387.489 75.1032 387.488 75.0424L387.492 75.044V68.0641L385.854 67.083H385.684C385.124 70.3253 381.566 72.4604 378.585 72.9074Z" fill="#0F054C"/>
<path d="M344.238 89.627L315.64 71.8425C312.291 69.7603 312.291 66.3716 315.64 64.2895L344.237 46.505C347.585 44.4228 353.034 44.4228 356.382 46.505L384.981 64.291C388.329 66.3732 388.329 69.7619 384.981 71.844L356.384 89.6286C353.034 91.7091 347.586 91.7091 344.238 89.627Z" fill="url(#paint15_linear_63_3)"/>
<path d="M350.31 86.3968C348.545 86.3968 346.783 85.9794 345.44 85.1447L323.097 71.2488C321.751 70.4125 321.011 69.2803 321.011 68.0656C321.011 66.8494 321.752 65.7172 323.097 64.8793L345.44 50.985C348.124 49.3155 352.493 49.3155 355.178 50.985L377.521 64.8809C378.867 65.7172 379.607 66.8494 379.607 68.0641C379.607 69.2803 378.865 70.4125 377.521 71.2503L355.18 85.1447C353.838 85.9794 352.074 86.3968 350.31 86.3968ZM350.309 50.264C348.636 50.264 346.963 50.6611 345.691 51.4537L323.348 65.3481C322.164 66.0847 321.512 67.0503 321.512 68.0656C321.512 69.0794 322.164 70.045 323.348 70.78L345.691 84.6759C348.237 86.2613 352.381 86.2613 354.929 84.6759L377.271 70.7816C378.455 70.045 379.108 69.0794 379.108 68.0641C379.108 67.0503 378.456 66.0847 377.271 65.3497L354.928 51.4537C353.654 50.6611 351.982 50.264 350.309 50.264Z" fill="#5351AF"/>
<path d="M384.981 71.842L356.384 89.6265C353.035 91.7087 347.586 91.7087 344.238 89.6265L315.639 71.842C314.143 70.9107 313.318 69.7194 313.159 68.5C312.962 70.009 313.787 71.5601 315.639 72.711L344.238 90.4955C347.586 92.5776 353.035 92.5776 356.384 90.4955L384.981 72.711C386.833 71.5586 387.658 70.009 387.462 68.5C387.303 69.7194 386.477 70.9107 384.981 71.842Z" fill="white"/>
<g opacity="0.3">
<path d="M74.3652 241.665V234.685L72.5725 233.612C72.0665 236.906 68.4665 239.077 65.4579 239.528L44.9658 252.435L36.0224 255.914L7.47743 240.047L8.13669 239.637C5.69626 238.41 4.38351 235.602 3.06353 233.041L1.14214 234.275L0 234.621V241.779C0 243.146 0.837091 244.513 2.51127 245.555L31.1097 263.34C34.4581 265.422 39.9071 265.422 43.2541 263.34L71.851 245.555C73.4978 244.53 74.3349 243.191 74.3609 241.846C74.3624 241.785 74.3594 241.726 74.358 241.665H74.3652Z" fill="url(#paint16_linear_63_3)"/>
<path opacity="0.3" d="M65.4579 239.528L44.9658 252.435L37.1819 255.463V264.9C39.3809 264.9 41.5813 264.38 43.2555 263.338L71.8525 245.554C73.4992 244.529 74.3363 243.19 74.3623 241.844C74.3638 241.783 74.3609 241.724 74.3595 241.664L74.3638 241.665V234.685L72.7257 233.704H72.5551C71.9971 236.946 68.4391 239.081 65.4579 239.528Z" fill="#0F054C"/>
<path d="M31.111 256.248L2.51256 238.463C-0.83581 236.381 -0.83581 232.992 2.51256 230.91L31.1096 213.126C34.4579 211.043 39.907 211.043 43.2553 213.126L71.8538 230.912C75.2022 232.994 75.2022 236.382 71.8538 238.465L43.2568 256.249C39.907 258.33 34.4594 258.33 31.111 256.248Z" fill="url(#paint17_linear_63_3)"/>
<g opacity="0.3">
<path d="M31.111 256.248L2.51256 238.463C-0.83581 236.381 -0.83581 232.992 2.51256 230.91L31.1096 213.126C34.4579 211.043 39.907 211.043 43.2553 213.126L71.8538 230.912C75.2022 232.994 75.2022 236.382 71.8538 238.465L43.2568 256.249C39.907 258.33 34.4594 258.33 31.111 256.248Z" fill="#0F054C"/>
</g>
</g>
<path d="M37.1833 233.769C35.2316 233.769 33.2798 233.307 31.7921 232.382L3.19512 214.597C1.71033 213.674 0.892029 212.428 0.892029 211.089C0.892029 209.749 1.70888 208.503 3.19512 207.58L31.7921 189.795C34.7617 187.95 39.5992 187.947 42.5717 189.795L71.1701 207.58C72.6549 208.505 73.4732 209.749 73.4732 211.09C73.4732 212.428 72.6549 213.674 71.1701 214.597L42.5731 232.382C41.0883 233.307 39.1351 233.769 37.1833 233.769ZM37.1819 188.942C35.3198 188.942 33.4591 189.381 32.0422 190.264L3.44524 208.049C2.12237 208.871 1.39371 209.952 1.39371 211.089C1.39371 212.225 2.12237 213.306 3.44524 214.128L32.0437 231.913C34.8774 233.677 39.4879 233.676 42.3216 231.913L70.92 214.128C72.2429 213.306 72.9715 212.227 72.9715 211.09C72.9715 209.953 72.2429 208.871 70.9186 208.049L42.3216 190.264C40.9047 189.383 39.044 188.942 37.1819 188.942Z" fill="#42E8E0"/>
<path opacity="0.4" d="M74.3652 204.263V193.713L72.5725 192.64C72.0665 195.934 68.4665 198.105 65.4579 198.557L44.9658 211.464L36.0224 214.943L7.47743 199.075L8.13669 198.666C5.69626 197.438 4.38351 194.629 3.06353 192.069L1.14214 193.304L0 193.65V204.376C0 205.744 0.837091 207.111 2.51127 208.153L31.1097 225.937C34.4581 228.019 39.9071 228.019 43.2541 225.937L71.851 208.153C73.4978 207.128 74.3349 205.789 74.3609 204.443C74.3624 204.383 74.3594 204.323 74.358 204.263H74.3652Z" fill="#42E8E0"/>
<path d="M74.3652 194.886V187.906L72.5725 186.833C72.0665 190.127 68.4665 192.298 65.4579 192.749L44.9658 205.657L36.0224 209.136L7.47743 193.268L8.13669 192.859C5.69626 191.631 4.38351 188.824 3.06353 186.262L1.14214 187.497L0 187.842V195C0 196.367 0.837091 197.734 2.51127 198.776L31.1097 216.561C34.4581 218.643 39.9071 218.643 43.2541 216.561L71.851 198.776C73.4978 197.752 74.3349 196.412 74.3609 195.067C74.3624 195.006 74.3594 194.947 74.358 194.886H74.3652Z" fill="url(#paint18_linear_63_3)"/>
<path opacity="0.3" d="M65.4579 192.748L44.9658 205.655L37.1819 208.683V218.12C39.3809 218.12 41.5813 217.6 43.2555 216.558L71.8525 198.773C73.4992 197.749 74.3363 196.409 74.3623 195.064C74.3638 195.003 74.3609 194.944 74.3595 194.883L74.3638 194.885V187.905L72.7257 186.924H72.5551C71.9971 190.168 68.4391 192.301 65.4579 192.748Z" fill="#0F054C"/>
<path d="M31.111 209.469L2.51256 191.684C-0.83581 189.602 -0.83581 186.213 2.51256 184.131L31.1096 166.347C34.4579 164.265 39.9055 164.265 43.2553 166.347L71.8538 184.131C75.2022 186.213 75.2022 189.602 71.8538 191.684L43.2568 209.469C39.907 211.551 34.4594 211.551 31.111 209.469Z" fill="url(#paint19_linear_63_3)"/>
<path d="M71.8539 191.684L43.2569 209.469C39.9086 211.551 34.461 211.551 31.1126 209.469L2.51416 191.684C1.01781 190.753 0.192279 189.562 0.0332459 188.342C-0.163377 189.851 0.662153 191.402 2.51416 192.553L31.1126 210.339C34.461 212.421 39.91 212.421 43.2569 210.339L71.8539 192.555C73.706 191.404 74.5315 189.853 74.3349 188.344C74.1758 189.562 73.3503 190.753 71.8539 191.684Z" fill="white"/>
<defs>
<radialGradient id="paint0_radial_63_3" cx="0" cy="0" r="1" gradientUnits="userSpaceOnUse" gradientTransform="translate(192.711 109.61) rotate(46.5326) scale(28.4175 46.7554)">
<stop stop-color="#C0BFF6"/>
<stop offset="1" stop-color="#393091"/>
</radialGradient>
<linearGradient id="paint1_linear_63_3" x1="183.677" y1="124.572" x2="159.317" y2="125.546" gradientUnits="userSpaceOnUse">
<stop stop-color="#42E8E0"/>
<stop offset="0.0047" stop-color="#42E6DF"/>
<stop offset="0.1358" stop-color="#40B6CB"/>
<stop offset="0.2707" stop-color="#3E8DB9"/>
<stop offset="0.4074" stop-color="#3C6BAA"/>
<stop offset="0.5467" stop-color="#3B519F"/>
<stop offset="0.6893" stop-color="#3A3F97"/>
<stop offset="0.8375" stop-color="#393493"/>
<stop offset="1" stop-color="#393091"/>
</linearGradient>
<radialGradient id="paint2_radial_63_3" cx="0" cy="0" r="1" gradientUnits="userSpaceOnUse" gradientTransform="translate(266.977 33.4881) rotate(12.0373) scale(89.3293 95.6443)">
<stop stop-color="#C0BFF6"/>
<stop offset="1" stop-color="#393091"/>
</radialGradient>
<linearGradient id="paint3_linear_63_3" x1="184.895" y1="100.601" x2="203.278" y2="73.8061" gradientUnits="userSpaceOnUse">
<stop stop-color="#42E8E0"/>
<stop offset="0.0047" stop-color="#42E6DF"/>
<stop offset="0.1358" stop-color="#40B6CB"/>
<stop offset="0.2707" stop-color="#3E8DB9"/>
<stop offset="0.4074" stop-color="#3C6BAA"/>
<stop offset="0.5467" stop-color="#3B519F"/>
<stop offset="0.6893" stop-color="#3A3F97"/>
<stop offset="0.8375" stop-color="#393493"/>
<stop offset="1" stop-color="#393091"/>
</linearGradient>
<radialGradient id="paint4_radial_63_3" cx="0" cy="0" r="1" gradientUnits="userSpaceOnUse" gradientTransform="translate(253.793 108.008) scale(68.4585 100.381)">
<stop stop-color="#C0BFF6"/>
<stop offset="1" stop-color="#393091"/>
</radialGradient>
<linearGradient id="paint5_linear_63_3" x1="230.289" y1="175.174" x2="230.289" y2="74.8345" gradientUnits="userSpaceOnUse">
<stop stop-color="#42E8E0"/>
<stop offset="0.0047" stop-color="#42E6DF"/>
<stop offset="0.1358" stop-color="#40B6CB"/>
<stop offset="0.2707" stop-color="#3E8DB9"/>
<stop offset="0.4074" stop-color="#3C6BAA"/>
<stop offset="0.5467" stop-color="#3B519F"/>
<stop offset="0.6893" stop-color="#3A3F97"/>
<stop offset="0.8375" stop-color="#393493"/>
<stop offset="1" stop-color="#393091"/>
</linearGradient>
<radialGradient id="paint6_radial_63_3" cx="0" cy="0" r="1" gradientUnits="userSpaceOnUse" gradientTransform="translate(257.224 45.34) scale(68.6684 73.9672)">
<stop stop-color="#C0BFF6"/>
<stop offset="1" stop-color="#393091"/>
</radialGradient>
<linearGradient id="paint7_linear_63_3" x1="226.214" y1="95.1655" x2="239.296" y2="8.74946" gradientUnits="userSpaceOnUse">
<stop stop-color="#42E8E0"/>
<stop offset="0.0047" stop-color="#42E6DF"/>
<stop offset="0.1358" stop-color="#40B6CB"/>
<stop offset="0.2707" stop-color="#3E8DB9"/>
<stop offset="0.4074" stop-color="#3C6BAA"/>
<stop offset="0.5467" stop-color="#3B519F"/>
<stop offset="0.6893" stop-color="#3A3F97"/>
<stop offset="0.8375" stop-color="#393493"/>
<stop offset="1" stop-color="#393091"/>
</linearGradient>
<radialGradient id="paint8_radial_63_3" cx="0" cy="0" r="1" gradientUnits="userSpaceOnUse" gradientTransform="translate(284.756 102.051) rotate(12.0373) scale(32.2856 34.568)">
<stop stop-color="#C0BFF6"/>
<stop offset="1" stop-color="#393091"/>
</radialGradient>
<linearGradient id="paint9_linear_63_3" x1="263.132" y1="122.666" x2="289.347" y2="104.983" gradientUnits="userSpaceOnUse">
<stop stop-color="#42E8E0"/>
<stop offset="0.0047" stop-color="#42E6DF"/>
<stop offset="0.1358" stop-color="#40B6CB"/>
<stop offset="0.2707" stop-color="#3E8DB9"/>
<stop offset="0.4074" stop-color="#3C6BAA"/>
<stop offset="0.5467" stop-color="#3B519F"/>
<stop offset="0.6893" stop-color="#3A3F97"/>
<stop offset="0.8375" stop-color="#393493"/>
<stop offset="1" stop-color="#393091"/>
</linearGradient>
<radialGradient id="paint10_radial_63_3" cx="0" cy="0" r="1" gradientUnits="userSpaceOnUse" gradientTransform="translate(304.241 154.866) rotate(7.32229) scale(27.3947 48.5)">
<stop stop-color="#C0BFF6"/>
<stop offset="1" stop-color="#393091"/>
</radialGradient>
<linearGradient id="paint11_linear_63_3" x1="278.492" y1="169.816" x2="299.754" y2="172.171" gradientUnits="userSpaceOnUse">
<stop stop-color="#42E8E0"/>
<stop offset="0.0047" stop-color="#42E6DF"/>
<stop offset="0.1358" stop-color="#40B6CB"/>
<stop offset="0.2707" stop-color="#3E8DB9"/>
<stop offset="0.4074" stop-color="#3C6BAA"/>
<stop offset="0.5467" stop-color="#3B519F"/>
<stop offset="0.6893" stop-color="#3A3F97"/>
<stop offset="0.8375" stop-color="#393493"/>
<stop offset="1" stop-color="#393091"/>
</linearGradient>
<linearGradient id="paint12_linear_63_3" x1="320.526" y1="104.369" x2="381.638" y2="137.124" gradientUnits="userSpaceOnUse">
<stop stop-color="#BCBEFF"/>
<stop offset="0.2271" stop-color="#AAADF8"/>
<stop offset="0.6802" stop-color="#7C83E5"/>
<stop offset="1" stop-color="#5761D7"/>
</linearGradient>
<linearGradient id="paint13_linear_63_3" x1="313.128" y1="118.239" x2="387.491" y2="118.239" gradientUnits="userSpaceOnUse">
<stop stop-color="#E9E9FD"/>
<stop offset="0.3601" stop-color="#D3D2F9"/>
<stop offset="0.7062" stop-color="#C5C4F7"/>
<stop offset="1" stop-color="#C0BFF6"/>
</linearGradient>
<linearGradient id="paint14_linear_63_3" x1="320.526" y1="54.1957" x2="381.638" y2="86.9508" gradientUnits="userSpaceOnUse">
<stop stop-color="#BCBEFF"/>
<stop offset="0.2271" stop-color="#AAADF8"/>
<stop offset="0.6802" stop-color="#7C83E5"/>
<stop offset="1" stop-color="#5761D7"/>
</linearGradient>
<linearGradient id="paint15_linear_63_3" x1="313.128" y1="68.0654" x2="387.491" y2="68.0654" gradientUnits="userSpaceOnUse">
<stop stop-color="#E9E9FD"/>
<stop offset="0.3601" stop-color="#D3D2F9"/>
<stop offset="0.7062" stop-color="#C5C4F7"/>
<stop offset="1" stop-color="#C0BFF6"/>
</linearGradient>
<linearGradient id="paint16_linear_63_3" x1="7.39951" y1="220.816" x2="68.5108" y2="253.571" gradientUnits="userSpaceOnUse">
<stop stop-color="#BCBEFF"/>
<stop offset="0.2271" stop-color="#AAADF8"/>
<stop offset="0.6802" stop-color="#7C83E5"/>
<stop offset="1" stop-color="#5761D7"/>
</linearGradient>
<linearGradient id="paint17_linear_63_3" x1="0.00113716" y1="234.686" x2="74.3644" y2="234.686" gradientUnits="userSpaceOnUse">
<stop stop-color="#E9E9FD"/>
<stop offset="0.3601" stop-color="#D3D2F9"/>
<stop offset="0.7062" stop-color="#C5C4F7"/>
<stop offset="1" stop-color="#C0BFF6"/>
</linearGradient>
<linearGradient id="paint18_linear_63_3" x1="7.39951" y1="174.037" x2="68.5108" y2="206.792" gradientUnits="userSpaceOnUse">
<stop stop-color="#BCBEFF"/>
<stop offset="0.2271" stop-color="#AAADF8"/>
<stop offset="0.6802" stop-color="#7C83E5"/>
<stop offset="1" stop-color="#5761D7"/>
</linearGradient>
<linearGradient id="paint19_linear_63_3" x1="0.00113716" y1="187.907" x2="74.3645" y2="187.907" gradientUnits="userSpaceOnUse">
<stop stop-color="#E9E9FD"/>
<stop offset="0.3601" stop-color="#D3D2F9"/>
<stop offset="0.7062" stop-color="#C5C4F7"/>
<stop offset="1" stop-color="#C0BFF6"/>
</linearGradient>
</defs>
</svg>
